<svg width="1200" height="675" viewBox="0 0 1200 675" fill="none" xmlns="http://www.w3.org/2000/svg">
<path d="M680.76 122.694C685.005 127.774 689.549 132.298 692.219 138.398C688.884 140.423 685.473 139.576 682.349 140.159C666.108 143.191 652.104 150.058 641.307 162.822C640.516 163.757 639.695 164.677 638.999 165.681C634.782 171.757 634.938 172.511 641.266 177.3C642.769 177.076 643.475 175.813 644.319 174.794C670.417 143.288 715.161 144.036 743.521 165.737C760.831 178.982 771.327 196.119 774.691 217.62C776.097 226.604 775.736 235.541 773.637 244.373C772.979 247.144 773.484 248.607 776.472 249.391C816.644 259.936 841.349 286.352 852.017 325.577C861.451 360.264 853.85 392.347 832.139 420.776C816.809 440.85 795.669 452.304 771.526 458.723C762.35 461.162 753.07 462.006 743.599 462C647.074 461.933 550.55 461.976 454.025 461.957C406.901 461.947 366.477 434.19 350.563 389.833C332.686 340.004 352.229 284.678 398.225 258.192C404.512 254.572 411.195 251.773 418.119 249.657C420.803 248.836 421.642 247.824 421.437 244.846C419.316 213.93 431.384 189.945 457.529 173.307C466.373 167.68 476.419 164.792 486.853 163.775C489.866 163.481 491.116 162.226 492.039 159.642C498.771 140.804 510.119 125.266 525.767 112.803C542.393 99.5604 561.269 91.8183 582.342 89.064C603.53 86.2945 623.943 88.8835 643.513 97.3973C657.398 103.438 669.924 111.598 680.76 122.694ZM619.022 171.654C606.739 159.292 592.418 151.039 574.624 148.734C574.496 151.758 576.132 152.789 577.182 154.12C582.936 161.419 587.404 169.133 587.384 178.904C587.359 190.744 582.057 200.35 575.457 209.579C568.49 219.322 561.089 228.79 559.77 241.454C559.429 244.726 561.522 249.431 557.871 251.168C554.952 252.556 550.896 251.411 547.373 251.72C543.788 252.035 541.165 250.886 538.832 248.123C535.467 244.138 531.343 240.963 526.681 238.558C525.534 237.966 524.263 236.71 522.986 237.952C521.838 239.069 522.614 240.501 523.078 241.776C524.177 244.796 525.626 247.748 524.997 251.582C521.112 251.582 517.32 251.572 513.528 251.586C511.576 251.593 511.032 250.383 510.79 248.713C510.49 246.64 510.024 244.414 507.33 244.43C504.566 244.446 503.134 246.236 502.956 248.889C502.77 251.679 500.886 251.618 498.881 251.625C496.456 251.635 495.92 250.137 495.902 248.144C495.876 245.417 495.833 242.69 495.824 239.963C495.815 237.419 495.119 234.997 492.269 234.862C489.154 234.715 488.209 237.177 488.197 239.894C488.158 249.302 488.174 258.71 488.17 268.118C488.169 270.591 488.997 272.597 491.807 272.527C494.398 272.463 495.646 270.639 495.779 268.177C495.905 265.865 495.813 263.543 495.847 261.225C495.878 259.204 495.508 256.946 498.484 256.558C501.255 256.198 502.813 257.094 503.191 260.141C503.415 261.951 504.804 263.319 506.899 263.349C508.801 263.376 510.11 262.251 510.473 260.544C511.167 257.278 513.217 256.581 516.155 256.849C517.915 257.01 519.716 256.999 521.475 256.827C524.901 256.491 525.952 257.963 525.886 261.307C525.617 274.997 520.254 286.668 512.063 297.284C505.315 306.031 497.292 313.711 490.885 322.755C475.335 344.707 471.269 368.318 481.305 393.532C491.977 420.347 512.691 435.673 540.143 442.618C548.182 444.652 556.386 444.701 565.443 443.934C563.941 442.853 563.219 442.243 562.417 441.771C553.84 436.73 546.677 430.12 540.372 422.462C526.421 405.518 522.383 386.097 526.262 364.932C528.738 351.419 535.908 340.173 545.125 330.153C553.799 320.724 563.822 312.466 571.104 301.839C584.106 282.869 589.562 262.751 578.789 240.697C578.45 240.001 577.949 239.256 578.567 238.133C580.897 237.586 582.897 238.957 584.904 239.937C611.886 253.108 626.725 280.123 623.677 310.073C623.182 314.936 623.256 319.882 623.414 324.778C623.558 329.258 626.93 332.831 631.184 333.632C634.79 334.311 639.113 331.549 640.821 327.5C642.042 324.606 641.97 321.639 641.228 318.682C640.517 315.849 639.644 313.056 638.814 310.143C642.174 310.334 642.379 310.305 645.399 312.452C665.669 326.859 676.959 346.689 677.096 371.324C677.264 401.348 663.179 424.479 638.238 441.087C637.084 441.855 635.399 442.093 634.9 444.201C640.486 444.329 645.841 444.288 651.266 443.593C674.062 440.671 693.462 431.363 707.557 412.931C725.409 389.585 728.943 364.04 717.424 336.766C712.297 324.625 703.496 315.028 695.071 305.179C684.169 292.435 675.621 278.582 674.182 261.289C673.912 258.039 674.692 256.794 678.016 256.842C685.797 256.953 693.582 256.892 701.364 256.803C703.524 256.778 704.877 257.2 705.52 259.63C706.535 263.46 709.187 266.279 712.368 268.547C717.707 272.355 723.841 272.375 729.132 268.681C734.745 264.763 737.559 257.934 735.993 252.035C734.229 245.388 728.442 239.948 721.823 239.584C715.134 239.217 710.019 242.33 706.728 248.23C705.808 249.88 705.229 251.692 702.718 251.672C694.117 251.603 685.515 251.667 676.913 251.699C674.863 251.707 673.982 251 674.278 248.727C674.595 246.284 674.947 243.89 675.745 241.549C676.179 240.277 676.641 238.755 675.495 237.7C674.205 236.513 672.919 237.67 671.762 238.266C666.342 241.057 661.891 245.052 657.893 249.588C657.094 250.495 656.5 251.723 655.07 251.732C650.203 251.761 645.335 251.743 640.601 251.743C639.759 249.227 640.179 247.235 640.499 245.214C641.84 236.736 642.854 228.248 641.628 219.642C640.836 214.085 641.177 213.658 646.917 213.902C664.797 214.661 682.683 214.208 700.566 214.229C703.55 214.232 705.338 214.986 706.517 217.849C707.733 220.801 710.15 222.956 712.813 224.688C717.913 228.007 725.5 227.407 730.452 223.401C735.554 219.275 737.759 211.909 735.484 206.182C732.98 199.879 728.719 195.62 721.572 195.28C714.059 194.922 709.1 198.176 705.964 205.384C705.199 207.142 704.447 208.337 702.191 208.332C682.532 208.293 662.872 208.332 643.212 208.424C640.674 208.436 639.148 207.669 638.462 205.062C635.122 192.351 627.982 181.798 619.022 171.654ZM597.937 343.257C597.34 349.353 594.671 354.362 590.289 358.638C586.141 362.685 581.182 365.564 576.481 368.821C559.202 380.792 553.164 399.961 561.083 417.772C569.229 436.095 589.981 446.422 609.447 441.841C633.359 436.214 647.546 411.945 641.188 387.457C639.624 381.431 637.605 375.596 632.553 370.519C631.279 377.172 630.349 383.372 625.073 387.427C620.167 391.197 614.862 393.895 606.93 392.924C616.165 382.533 618.888 371.194 616.544 358.814C614.24 346.65 608.067 336.803 597.272 328.671C596.404 334.105 598.612 338.27 597.937 343.257ZM400.174 377.189C402.822 387.285 407.276 396.605 412.509 405.575C414.289 408.625 416.902 410.137 420.415 408.467C423.706 406.902 424.601 403.464 422.777 399.692C421.652 397.363 420.352 395.117 419.102 392.848C409.681 375.743 406.619 357.481 409.953 338.337C411.955 326.834 416.618 316.226 422.989 306.376C425.205 302.95 424.535 299.796 421.695 297.791C418.939 295.845 415.696 296.595 413.2 299.91C412.14 301.318 411.308 302.901 410.422 304.434C397.336 327.082 393.904 351.131 400.174 377.189ZM798.759 379.841C804.477 358.331 804.787 337.091 795.104 316.512C792.386 310.736 789.201 305.149 785.832 299.723C783.758 296.384 780.624 295.939 777.711 297.889C774.704 299.903 774.262 302.621 775.932 305.708C776.837 307.382 777.926 308.956 778.888 310.601C786.213 323.128 791.219 336.479 791.214 351.107C791.208 368.198 786.746 384.164 777.131 398.524C774.62 402.274 775.344 406.127 778.674 408.087C782.038 410.067 785.066 409.043 787.422 404.944C791.908 397.14 795.955 389.127 798.759 379.841ZM443.796 336.386C445.288 331.678 447.454 327.309 450.354 323.303C452.277 320.648 451.838 318.11 449.603 315.963C447.353 313.802 444.747 313.739 442.109 315.382C440.915 316.125 440.176 317.259 439.439 318.42C434.106 326.828 430.737 335.948 429.528 345.829C427.575 361.797 431.889 376.28 440.234 389.738C441.719 392.132 444.274 392.346 446.821 391.864C449.194 391.415 450.753 389.817 451.309 387.582C451.965 384.946 450.211 382.89 448.918 380.868C440.102 367.084 438.953 352.403 443.796 336.386ZM766.084 329.226C764.087 325.2 762.229 321.097 759.465 317.503C756.772 314 754.098 313.307 751.118 315.342C747.936 317.513 747.432 320.563 749.739 324.212C751.773 327.432 753.94 330.546 755.353 334.143C762.052 351.198 759.73 367.191 749.908 382.368C748.719 384.205 747.559 386.034 748.619 388.431C749.597 390.642 751.106 391.889 753.56 392.084C756.627 392.329 758.86 391.053 760.392 388.509C771.611 369.876 773.948 350.341 766.084 329.226ZM479.229 219.066C475.549 218.329 474.206 219.249 474.189 223.077C474.107 242.561 474.127 262.046 474.104 281.531C474.101 284.069 474.64 286.415 477.688 286.464C480.87 286.515 481.213 284.022 481.212 281.557C481.201 262.481 481.182 243.405 481.152 224.329C481.149 222.571 481.32 220.732 479.229 219.066ZM467.195 245.363C467.177 243.321 467.24 241.274 467.119 239.238C466.985 237.01 466.024 235.035 463.6 234.951C461.035 234.862 459.668 236.645 459.547 239.155C459.43 241.6 459.607 244.061 459.457 246.503C459.356 248.147 460.311 250.337 458.153 251.224C455.964 252.122 454.138 251.438 452.393 249.546C449.901 246.846 446.805 247.397 445.013 250.578C443.58 253.12 443.109 255.891 445.423 258.112C447.75 260.346 450.428 259.975 452.775 257.939C454.45 256.487 456.362 256.499 458.153 257.102C460.248 257.808 459.314 259.882 459.424 261.382C459.574 263.414 459.539 265.467 459.457 267.506C459.339 270.427 460.134 273.021 463.41 273.027C466.835 273.033 467.239 270.161 467.236 267.404C467.225 260.324 467.209 253.244 467.195 245.363Z" fill="black"/>
<path d="M680.76 122.694C685.005 127.774 689.549 132.298 692.219 138.398C688.884 140.423 685.473 139.576 682.349 140.159C666.108 143.191 652.104 150.058 641.307 162.822C640.516 163.757 639.695 164.677 638.999 165.681C634.782 171.757 634.938 172.511 641.266 177.3C642.769 177.076 643.475 175.813 644.319 174.794C670.417 143.288 715.161 144.036 743.521 165.737C760.831 178.982 771.327 196.119 774.691 217.62C776.097 226.604 775.736 235.541 773.637 244.373C772.979 247.144 773.484 248.607 776.472 249.391C816.644 259.936 841.349 286.352 852.017 325.577C861.451 360.264 853.85 392.347 832.139 420.776C816.809 440.85 795.669 452.304 771.526 458.723C762.35 461.162 753.07 462.006 743.599 462C647.074 461.933 550.55 461.976 454.025 461.957C406.901 461.947 366.477 434.19 350.563 389.833C332.686 340.004 352.229 284.678 398.225 258.192C404.512 254.572 411.195 251.773 418.119 249.657C420.803 248.836 421.642 247.824 421.437 244.846C419.316 213.93 431.384 189.945 457.529 173.307C466.373 167.68 476.419 164.792 486.853 163.775C489.866 163.481 491.116 162.226 492.039 159.642C498.771 140.804 510.119 125.266 525.767 112.803C542.393 99.5604 561.269 91.8183 582.342 89.064C603.53 86.2945 623.943 88.8835 643.513 97.3973C657.398 103.438 669.924 111.598 680.76 122.694ZM619.022 171.654C606.739 159.292 592.418 151.039 574.624 148.734C574.496 151.758 576.132 152.789 577.182 154.12C582.936 161.419 587.404 169.133 587.384 178.904C587.359 190.744 582.057 200.35 575.457 209.579C568.49 219.322 561.089 228.79 559.77 241.454C559.429 244.726 561.522 249.431 557.871 251.168C554.952 252.556 550.896 251.411 547.373 251.72C543.788 252.035 541.165 250.886 538.832 248.123C535.467 244.138 531.343 240.963 526.681 238.558C525.534 237.966 524.263 236.71 522.986 237.952C521.838 239.069 522.614 240.501 523.078 241.776C524.177 244.796 525.626 247.748 524.997 251.582C521.112 251.582 517.32 251.572 513.528 251.586C511.576 251.593 511.032 250.383 510.79 248.713C510.49 246.64 510.024 244.414 507.33 244.43C504.566 244.446 503.134 246.236 502.956 248.889C502.77 251.679 500.886 251.618 498.881 251.625C496.456 251.635 495.92 250.137 495.902 248.144C495.876 245.417 495.833 242.69 495.824 239.963C495.815 237.419 495.119 234.997 492.269 234.862C489.154 234.715 488.209 237.177 488.197 239.894C488.158 249.302 488.174 258.71 488.17 268.118C488.169 270.591 488.997 272.597 491.807 272.527C494.398 272.463 495.646 270.639 495.779 268.177C495.905 265.865 495.813 263.543 495.847 261.225C495.878 259.204 495.508 256.946 498.484 256.558C501.255 256.198 502.813 257.094 503.191 260.141C503.415 261.951 504.804 263.319 506.899 263.349C508.801 263.376 510.11 262.251 510.473 260.544C511.167 257.278 513.217 256.581 516.155 256.849C517.915 257.01 519.716 256.999 521.475 256.827C524.901 256.491 525.952 257.963 525.886 261.307C525.617 274.997 520.254 286.668 512.063 297.284C505.315 306.031 497.292 313.711 490.885 322.755C475.335 344.707 471.269 368.318 481.305 393.532C491.977 420.347 512.691 435.673 540.143 442.618C548.182 444.652 556.386 444.701 565.443 443.934C563.941 442.853 563.219 442.243 562.417 441.771C553.84 436.73 546.677 430.12 540.372 422.462C526.421 405.518 522.383 386.097 526.262 364.932C528.738 351.419 535.908 340.173 545.125 330.153C553.799 320.724 563.822 312.466 571.104 301.839C584.106 282.869 589.562 262.751 578.789 240.697C578.45 240.001 577.949 239.256 578.567 238.133C580.897 237.586 582.897 238.957 584.904 239.937C611.886 253.108 626.725 280.123 623.677 310.073C623.182 314.936 623.256 319.882 623.414 324.778C623.558 329.258 626.93 332.831 631.184 333.632C634.79 334.311 639.113 331.549 640.821 327.5C642.042 324.606 641.97 321.639 641.228 318.682C640.517 315.849 639.644 313.056 638.814 310.143C642.174 310.334 642.379 310.305 645.399 312.452C665.669 326.859 676.959 346.689 677.096 371.324C677.264 401.348 663.179 424.479 638.238 441.087C637.084 441.855 635.399 442.093 634.9 444.201C640.486 444.329 645.841 444.288 651.266 443.593C674.062 440.671 693.462 431.363 707.557 412.931C725.409 389.585 728.943 364.04 717.424 336.766C712.297 324.625 703.496 315.028 695.071 305.179C684.169 292.435 675.621 278.582 674.182 261.289C673.912 258.039 674.692 256.794 678.016 256.842C685.797 256.953 693.582 256.892 701.364 256.803C703.524 256.778 704.877 257.2 705.52 259.63C706.535 263.46 709.187 266.279 712.368 268.547C717.707 272.355 723.841 272.375 729.132 268.681C734.745 264.763 737.559 257.934 735.993 252.035C734.229 245.388 728.442 239.948 721.823 239.584C715.134 239.217 710.019 242.33 706.728 248.23C705.808 249.88 705.229 251.692 702.718 251.672C694.117 251.603 685.515 251.667 676.913 251.699C674.863 251.707 673.982 251 674.278 248.727C674.595 246.284 674.947 243.89 675.745 241.549C676.179 240.277 676.641 238.755 675.495 237.7C674.205 236.513 672.919 237.67 671.762 238.266C666.342 241.057 661.891 245.052 657.893 249.588C657.094 250.495 656.5 251.723 655.07 251.732C650.203 251.761 645.335 251.743 640.601 251.743C639.759 249.227 640.179 247.235 640.499 245.214C641.84 236.736 642.854 228.248 641.628 219.642C640.836 214.085 641.177 213.658 646.917 213.902C664.797 214.661 682.683 214.208 700.566 214.229C703.55 214.232 705.338 214.986 706.517 217.849C707.733 220.801 710.15 222.956 712.813 224.688C717.913 228.007 725.5 227.407 730.452 223.401C735.554 219.275 737.759 211.909 735.484 206.182C732.98 199.879 728.719 195.62 721.572 195.28C714.059 194.922 709.1 198.176 705.964 205.384C705.199 207.142 704.447 208.337 702.191 208.332C682.532 208.293 662.872 208.332 643.212 208.424C640.674 208.436 639.148 207.669 638.462 205.062C635.122 192.351 627.982 181.798 619.022 171.654ZM597.937 343.257C597.34 349.353 594.671 354.362 590.289 358.638C586.141 362.685 581.182 365.564 576.481 368.821C559.202 380.792 553.164 399.961 561.083 417.772C569.229 436.095 589.981 446.422 609.447 441.841C633.359 436.214 647.546 411.945 641.188 387.457C639.624 381.431 637.605 375.596 632.553 370.519C631.279 377.172 630.349 383.372 625.073 387.427C620.167 391.197 614.862 393.895 606.93 392.924C616.165 382.533 618.888 371.194 616.544 358.814C614.24 346.65 608.067 336.803 597.272 328.671C596.404 334.105 598.612 338.27 597.937 343.257ZM400.174 377.189C402.822 387.285 407.276 396.605 412.509 405.575C414.289 408.625 416.902 410.137 420.415 408.467C423.706 406.902 424.601 403.464 422.777 399.692C421.652 397.363 420.352 395.117 419.102 392.848C409.681 375.743 406.619 357.481 409.953 338.337C411.955 326.834 416.618 316.226 422.989 306.376C425.205 302.95 424.535 299.796 421.695 297.791C418.939 295.845 415.696 296.595 413.2 299.91C412.14 301.318 411.308 302.901 410.422 304.434C397.336 327.082 393.904 351.131 400.174 377.189ZM798.759 379.841C804.477 358.331 804.787 337.091 795.104 316.512C792.386 310.736 789.201 305.149 785.832 299.723C783.758 296.384 780.624 295.939 777.711 297.889C774.704 299.903 774.262 302.621 775.932 305.708C776.837 307.382 777.926 308.956 778.888 310.601C786.213 323.128 791.219 336.479 791.214 351.107C791.208 368.198 786.746 384.164 777.131 398.524C774.62 402.274 775.344 406.127 778.674 408.087C782.038 410.067 785.066 409.043 787.422 404.944C791.908 397.14 795.955 389.127 798.759 379.841ZM443.796 336.386C445.288 331.678 447.454 327.309 450.354 323.303C452.277 320.648 451.838 318.11 449.603 315.963C447.353 313.802 444.747 313.739 442.109 315.382C440.915 316.125 440.176 317.259 439.439 318.42C434.106 326.828 430.737 335.948 429.528 345.829C427.575 361.797 431.889 376.28 440.234 389.738C441.719 392.132 444.274 392.346 446.821 391.864C449.194 391.415 450.753 389.817 451.309 387.582C451.965 384.946 450.211 382.89 448.918 380.868C440.102 367.084 438.953 352.403 443.796 336.386ZM766.084 329.226C764.087 325.2 762.229 321.097 759.465 317.503C756.772 314 754.098 313.307 751.118 315.342C747.936 317.513 747.432 320.563 749.739 324.212C751.773 327.432 753.94 330.546 755.353 334.143C762.052 351.198 759.73 367.191 749.908 382.368C748.719 384.205 747.559 386.034 748.619 388.431C749.597 390.642 751.106 391.889 753.56 392.084C756.627 392.329 758.86 391.053 760.392 388.509C771.611 369.876 773.948 350.341 766.084 329.226ZM479.229 219.066C475.549 218.329 474.206 219.249 474.189 223.077C474.107 242.561 474.127 262.046 474.104 281.531C474.101 284.069 474.64 286.415 477.688 286.464C480.87 286.515 481.213 284.022 481.212 281.557C481.201 262.481 481.182 243.405 481.152 224.329C481.149 222.571 481.32 220.732 479.229 219.066ZM467.195 245.363C467.177 243.321 467.24 241.274 467.119 239.238C466.985 237.01 466.024 235.035 463.6 234.951C461.035 234.862 459.668 236.645 459.547 239.155C459.43 241.6 459.607 244.061 459.457 246.503C459.356 248.147 460.311 250.337 458.153 251.224C455.964 252.122 454.138 251.438 452.393 249.546C449.901 246.846 446.805 247.397 445.013 250.578C443.58 253.12 443.109 255.891 445.423 258.112C447.75 260.346 450.428 259.975 452.775 257.939C454.45 256.487 456.362 256.499 458.153 257.102C460.248 257.808 459.314 259.882 459.424 261.382C459.574 263.414 459.539 265.467 459.457 267.506C459.339 270.427 460.134 273.021 463.41 273.027C466.835 273.033 467.239 270.161 467.236 267.404C467.225 260.324 467.209 253.244 467.195 245.363Z" fill="white"/>
<path d="M529.435 534.477C529.44 529.835 529.36 525.588 529.467 521.345C529.602 515.961 532.27 512.882 536.491 513.003C540.56 513.121 542.978 516.102 542.987 521.356C543.017 540.528 542.989 559.701 542.96 578.873C542.955 582.494 542.976 586.241 538.568 587.61C534.409 588.902 531.743 586.869 530.109 583.224C517.983 590.111 508.845 589.522 500.779 581.494C492.684 573.435 490.655 561.058 495.884 551.632C502.446 539.803 511.175 537.01 528.858 541.217C529.861 539.19 529.269 536.982 529.435 534.477ZM528.692 559.822C526.429 553.744 521.544 550.015 516.64 550.62C511.156 551.297 506.664 556.148 506.036 562.07C505.47 567.416 508.836 572.919 513.817 574.789C522.355 577.996 530.264 570.466 528.692 559.822Z" fill="black"/>
<path d="M529.435 534.477C529.44 529.835 529.36 525.588 529.467 521.345C529.602 515.961 532.27 512.882 536.491 513.003C540.56 513.121 542.978 516.102 542.987 521.356C543.017 540.528 542.989 559.701 542.96 578.873C542.955 582.494 542.976 586.241 538.568 587.61C534.409 588.902 531.743 586.869 530.109 583.224C517.983 590.111 508.845 589.522 500.779 581.494C492.684 573.435 490.655 561.058 495.884 551.632C502.446 539.803 511.175 537.01 528.858 541.217C529.861 539.19 529.269 536.982 529.435 534.477ZM528.692 559.822C526.429 553.744 521.544 550.015 516.64 550.62C511.156 551.297 506.664 556.148 506.036 562.07C505.47 567.416 508.836 572.919 513.817 574.789C522.355 577.996 530.264 570.466 528.692 559.822Z" fill="white"/>
<path d="M390.159 583.261C375.95 571.325 376.782 550.73 391.805 541.844C400.047 536.969 408.433 537.235 416.399 542.887C416.663 542.777 417.007 542.748 417.121 542.571C419.052 539.537 421.408 537.127 425.356 538.304C429.417 539.515 429.621 542.92 429.638 546.498C429.691 557.584 429.959 568.67 430 579.757C430.017 584.461 428.186 586.898 424.544 587.586C421.188 588.221 418.862 586.646 417.076 583.605C408.143 589.145 399.209 589.896 390.159 583.261ZM405.245 575.253C411.363 574.275 414.826 571.575 415.835 566.388C416.81 561.379 416.118 556.66 411.709 553.297C407.426 550.032 402.088 549.923 397.862 552.898C393.904 555.685 391.967 561.968 393.488 567.084C394.986 572.124 398.905 575.013 405.245 575.253Z" fill="black"/>
<path d="M390.159 583.261C375.95 571.325 376.782 550.73 391.805 541.844C400.047 536.969 408.433 537.235 416.399 542.887C416.663 542.777 417.007 542.748 417.121 542.571C419.052 539.537 421.408 537.127 425.356 538.304C429.417 539.515 429.621 542.92 429.638 546.498C429.691 557.584 429.959 568.67 430 579.757C430.017 584.461 428.186 586.898 424.544 587.586C421.188 588.221 418.862 586.646 417.076 583.605C408.143 589.145 399.209 589.896 390.159 583.261ZM405.245 575.253C411.363 574.275 414.826 571.575 415.835 566.388C416.81 561.379 416.118 556.66 411.709 553.297C407.426 550.032 402.088 549.923 397.862 552.898C393.904 555.685 391.967 561.968 393.488 567.084C394.986 572.124 398.905 575.013 405.245 575.253Z" fill="white"/>
<path d="M731.773 587.822C728.957 587.431 727.41 585.761 725.942 583.492C719.895 587.35 713.574 589.34 706.405 586.99C701.231 585.294 697.473 581.943 694.461 577.639C687.902 568.265 688.662 555.681 696.171 546.959C704.259 537.564 713.738 536.031 725.571 542.208C726.535 542.172 726.872 541.327 727.39 540.736C729.464 538.373 731.94 537.323 735.003 538.461C738.173 539.638 738.989 542.313 738.99 545.359C738.996 557.095 739.034 568.833 738.905 580.568C738.85 585.536 737.132 587.181 731.773 587.822ZM705.505 571.104C710.226 576.119 715.171 576.765 720.573 572.716C724.629 569.676 725.898 565.376 724.897 560.417C723.893 555.444 719.989 551.394 715.122 550.79C710.689 550.241 707.302 552.474 704.921 556.085C701.734 560.918 702.135 565.82 705.505 571.104Z" fill="black"/>
<path d="M731.773 587.822C728.957 587.431 727.41 585.761 725.942 583.492C719.895 587.35 713.574 589.34 706.405 586.99C701.231 585.294 697.473 581.943 694.461 577.639C687.902 568.265 688.662 555.681 696.171 546.959C704.259 537.564 713.738 536.031 725.571 542.208C726.535 542.172 726.872 541.327 727.39 540.736C729.464 538.373 731.94 537.323 735.003 538.461C738.173 539.638 738.989 542.313 738.99 545.359C738.996 557.095 739.034 568.833 738.905 580.568C738.85 585.536 737.132 587.181 731.773 587.822ZM705.505 571.104C710.226 576.119 715.171 576.765 720.573 572.716C724.629 569.676 725.898 565.376 724.897 560.417C723.893 555.444 719.989 551.394 715.122 550.79C710.689 550.241 707.302 552.474 704.921 556.085C701.734 560.918 702.135 565.82 705.505 571.104Z" fill="#F97316"/>
<path d="M803.045 587.622C792.742 585.817 784.156 577.454 782.453 567.829C780.465 556.597 785.112 545.977 794.613 540.846C802.715 536.47 810.906 537.38 818.549 541.939C825.979 546.372 830.281 552.949 829.986 561.93C829.814 567.169 826.952 569.47 821.631 568.943C813.325 568.12 805.019 568.53 796.534 568.721C799.527 575.936 808.276 577.192 813.853 573.541C816.001 572.135 818.136 571.003 820.75 572.203C822.982 573.227 825.462 574.008 825.819 577.003C826.155 579.819 824.649 581.779 822.543 583.215C816.766 587.155 810.392 588.811 803.045 587.622ZM807.779 558.32C810.493 557.949 813.441 559.181 815.989 557.335C813.865 551.978 809.947 549.652 804.403 550.31C799.885 550.847 797.131 553.38 796.54 557.732C799.944 558.969 803.505 558.042 807.779 558.32Z" fill="black"/>
<path d="M803.045 587.622C792.742 585.817 784.156 577.454 782.453 567.829C780.465 556.597 785.112 545.977 794.613 540.846C802.715 536.47 810.906 537.38 818.549 541.939C825.979 546.372 830.281 552.949 829.986 561.93C829.814 567.169 826.952 569.47 821.631 568.943C813.325 568.12 805.019 568.53 796.534 568.721C799.527 575.936 808.276 577.192 813.853 573.541C816.001 572.135 818.136 571.003 820.75 572.203C822.982 573.227 825.462 574.008 825.819 577.003C826.155 579.819 824.649 581.779 822.543 583.215C816.766 587.155 810.392 588.811 803.045 587.622ZM807.779 558.32C810.493 557.949 813.441 559.181 815.989 557.335C813.865 551.978 809.947 549.652 804.403 550.31C799.885 550.847 797.131 553.38 796.54 557.732C799.944 558.969 803.505 558.042 807.779 558.32Z" fill="#F97316"/>
<path d="M622.737 571.173C616.63 585.094 603.881 591.077 590.7 586.466C580.367 582.852 573.477 570.561 575.289 558.974C577.159 547.017 586.977 538.102 598.386 538.001C616.322 537.843 627.981 553.508 622.737 571.173ZM607.691 553.903C602.805 549.691 598.37 549.016 593.557 551.75C589.31 554.162 587.147 559.176 587.885 564.898C588.523 569.846 591.802 573.7 596.378 574.88C600.682 575.99 606.372 573.809 608.986 570.049C612.154 565.491 611.814 559.591 607.691 553.903Z" fill="black"/>
<path d="M622.737 571.173C616.63 585.094 603.881 591.077 590.7 586.466C580.367 582.852 573.477 570.561 575.289 558.974C577.159 547.017 586.977 538.102 598.386 538.001C616.322 537.843 627.981 553.508 622.737 571.173ZM607.691 553.903C602.805 549.691 598.37 549.016 593.557 551.75C589.31 554.162 587.147 559.176 587.885 564.898C588.523 569.846 591.802 573.7 596.378 574.88C600.682 575.99 606.372 573.809 608.986 570.049C612.154 565.491 611.814 559.591 607.691 553.903Z" fill="white"/>
<path d="M444.262 578.822C441.946 574.701 440.959 570.55 441.001 566.085C441.065 559.418 440.98 552.75 441.043 546.084C441.091 541.048 443.624 537.965 447.515 538C451.57 538.037 453.851 540.805 453.941 546.091C454.053 552.62 453.97 559.153 454.074 565.683C454.173 571.967 456.672 575.196 461.351 575.331C466.876 575.49 471.545 571.591 471.893 565.964C472.228 560.543 472.004 555.086 472.042 549.645C472.053 548.014 471.989 546.366 472.186 544.755C472.725 540.351 475.216 537.863 478.728 538.047C482.478 538.244 484.914 541.052 484.951 545.51C485.02 553.809 484.98 562.11 484.984 570.409C484.986 573.811 484.946 577.213 484.997 580.614C485.039 583.488 484.69 586.184 481.686 587.33C478.612 588.502 476.04 587.43 473.934 584.959C473.598 584.566 473.256 584.179 472.946 583.823C458.748 590.524 451.956 589.377 444.262 578.822Z" fill="black"/>
<path d="M444.262 578.822C441.946 574.701 440.959 570.55 441.001 566.085C441.065 559.418 440.98 552.75 441.043 546.084C441.091 541.048 443.624 537.965 447.515 538C451.57 538.037 453.851 540.805 453.941 546.091C454.053 552.62 453.97 559.153 454.074 565.683C454.173 571.967 456.672 575.196 461.351 575.331C466.876 575.49 471.545 571.591 471.893 565.964C472.228 560.543 472.004 555.086 472.042 549.645C472.053 548.014 471.989 546.366 472.186 544.755C472.725 540.351 475.216 537.863 478.728 538.047C482.478 538.244 484.914 541.052 484.951 545.51C485.02 553.809 484.98 562.11 484.984 570.409C484.986 573.811 484.946 577.213 484.997 580.614C485.039 583.488 484.69 586.184 481.686 587.33C478.612 588.502 476.04 587.43 473.934 584.959C473.598 584.566 473.256 584.179 472.946 583.823C458.748 590.524 451.956 589.377 444.262 578.822Z" fill="white"/>
<path d="M626.003 546.29C625.943 540.724 626.852 539.395 631.951 538.391C633.906 538.006 634.424 537.071 634.534 535.359C634.649 533.577 634.876 531.796 635.147 530.029C636.944 518.318 648.198 511.353 659.541 514.95C660.709 515.32 661.969 515.751 662.88 516.516C665.456 518.679 668.177 521.182 666.465 524.892C664.79 528.52 661.313 528.529 657.856 527.728C650.868 526.107 647.948 528.38 648.099 535.127C648.148 537.351 648.843 538.489 651.197 538.425C653.128 538.373 655.082 538.326 656.992 538.558C660.657 539.005 663.081 541.605 662.834 544.866C662.56 548.498 660.595 550.686 656.817 551.003C656.404 551.037 655.99 551.063 655.576 551.072C648.07 551.232 648.076 551.231 648.086 558.944C648.094 566.106 648.128 573.267 648.078 580.428C648.043 585.51 645.745 588.051 641.409 587.999C637.304 587.95 635.144 585.493 635.102 580.517C635.03 572.116 635.012 563.714 635.11 555.315C635.14 552.775 634.734 551.178 631.697 550.883C629.147 550.636 627.033 549.208 626.003 546.29Z" fill="black"/>
<path d="M626.003 546.29C625.943 540.724 626.852 539.395 631.951 538.391C633.906 538.006 634.424 537.071 634.534 535.359C634.649 533.577 634.876 531.796 635.147 530.029C636.944 518.318 648.198 511.353 659.541 514.95C660.709 515.32 661.969 515.751 662.88 516.516C665.456 518.679 668.177 521.182 666.465 524.892C664.79 528.52 661.313 528.529 657.856 527.728C650.868 526.107 647.948 528.38 648.099 535.127C648.148 537.351 648.843 538.489 651.197 538.425C653.128 538.373 655.082 538.326 656.992 538.558C660.657 539.005 663.081 541.605 662.834 544.866C662.56 548.498 660.595 550.686 656.817 551.003C656.404 551.037 655.99 551.063 655.576 551.072C648.07 551.232 648.076 551.231 648.086 558.944C648.094 566.106 648.128 573.267 648.078 580.428C648.043 585.51 645.745 588.051 641.409 587.999C637.304 587.95 635.144 585.493 635.102 580.517C635.03 572.116 635.012 563.714 635.11 555.315C635.14 552.775 634.734 551.178 631.697 550.883C629.147 550.636 627.033 549.208 626.003 546.29Z" fill="#F97316"/>
<path d="M672.095 549.734C672.134 541.432 672.152 533.54 672.22 525.647C672.239 523.474 672.304 521.289 672.529 519.134C672.893 515.635 674.501 513.233 677.804 513.01C680.815 512.808 683.407 515.603 683.875 519.359C684.041 520.697 683.994 522.075 683.992 523.434C683.965 541.669 683.931 559.905 683.891 578.14C683.877 584.577 681.832 587.978 677.994 588C673.991 588.022 671.985 584.796 672 578.312C672.023 568.922 672.061 559.532 672.095 549.734Z" fill="black"/>
<path d="M672.095 549.734C672.134 541.432 672.152 533.54 672.22 525.647C672.239 523.474 672.304 521.289 672.529 519.134C672.893 515.635 674.501 513.233 677.804 513.01C680.815 512.808 683.407 515.603 683.875 519.359C684.041 520.697 683.994 522.075 683.992 523.434C683.965 541.669 683.931 559.905 683.891 578.14C683.877 584.577 681.832 587.978 677.994 588C673.991 588.022 671.985 584.796 672 578.312C672.023 568.922 672.061 559.532 672.095 549.734Z" fill="#F97316"/>
<path d="M749.008 579.726C749.005 568.986 748.988 558.621 749.015 548.256C749.019 546.627 749.112 544.981 749.353 543.376C749.745 540.769 750.941 538.682 753.553 538.159C756.301 537.608 758.622 538.46 760.115 541.182C760.434 541.764 760.772 542.334 761.276 543.215C764.002 540.768 766.911 538.887 770.462 538.474C773.427 538.13 776.084 538.857 778.284 540.987C779.944 542.594 780.433 544.661 779.605 546.954C778.819 549.133 777.609 550.537 775.134 550.702C765.533 551.339 761.577 555.9 761.444 566.277C761.387 570.64 761.456 575.005 761.421 579.369C761.375 585.106 759.67 587.69 755.814 587.975C751.71 588.279 749.577 585.81 749.008 579.726Z" fill="black"/>
<path d="M749.008 579.726C749.005 568.986 748.988 558.621 749.015 548.256C749.019 546.627 749.112 544.981 749.353 543.376C749.745 540.769 750.941 538.682 753.553 538.159C756.301 537.608 758.622 538.46 760.115 541.182C760.434 541.764 760.772 542.334 761.276 543.215C764.002 540.768 766.911 538.887 770.462 538.474C773.427 538.13 776.084 538.857 778.284 540.987C779.944 542.594 780.433 544.661 779.605 546.954C778.819 549.133 777.609 550.537 775.134 550.702C765.533 551.339 761.577 555.9 761.444 566.277C761.387 570.64 761.456 575.005 761.421 579.369C761.375 585.106 759.67 587.69 755.814 587.975C751.71 588.279 749.577 585.81 749.008 579.726Z" fill="#F97316"/>
<path d="M553.019 559.181C553.027 554.633 552.946 550.485 553.068 546.343C553.186 542.303 555.361 540.043 558.885 540.001C562.797 539.954 565.962 542.469 565.981 546.239C566.043 558.138 565.952 570.039 565.748 581.936C565.684 585.703 562.826 588.045 559.044 587.999C555.699 587.959 553.167 585.482 553.09 581.647C552.94 574.295 553.029 566.938 553.019 559.181Z" fill="black"/>
<path d="M553.019 559.181C553.027 554.633 552.946 550.485 553.068 546.343C553.186 542.303 555.361 540.043 558.885 540.001C562.797 539.954 565.962 542.469 565.981 546.239C566.043 558.138 565.952 570.039 565.748 581.936C565.684 585.703 562.826 588.045 559.044 587.999C555.699 587.959 553.167 585.482 553.09 581.647C552.94 574.295 553.029 566.938 553.019 559.181Z" fill="white"/>
<path d="M555.678 533.809C552.701 531.165 552.416 528.107 553.796 524.844C554.955 522.105 557.205 520.822 559.947 521.02C562.962 521.238 564.587 523.48 565.61 526.289C566.567 528.92 565.672 531.067 563.91 532.868C561.532 535.298 558.84 535.705 555.678 533.809Z" fill="black"/>
<path d="M555.678 533.809C552.701 531.165 552.416 528.107 553.796 524.844C554.955 522.105 557.205 520.822 559.947 521.02C562.962 521.238 564.587 523.48 565.61 526.289C566.567 528.92 565.672 531.067 563.91 532.868C561.532 535.298 558.84 535.705 555.678 533.809Z" fill="white"/>
<path d="M547.054 258.162C548.593 258.107 549.758 258.076 550.922 258.077C561.346 258.083 560.002 256.583 559.88 266.564C559.799 273.2 557.782 279.375 552.683 284.395C550.943 286.109 549.137 287.903 546.297 288C545.058 286.727 545.998 285.592 546.362 284.553C549.013 276.976 549.017 269.499 545.747 262.051C545.158 260.709 543.909 258.984 547.054 258.162Z" fill="black"/>
<path d="M547.054 258.162C548.593 258.107 549.758 258.076 550.922 258.077C561.346 258.083 560.002 256.583 559.88 266.564C559.799 273.2 557.782 279.375 552.683 284.395C550.943 286.109 549.137 287.903 546.297 288C545.058 286.727 545.998 285.592 546.362 284.553C549.013 276.976 549.017 269.499 545.747 262.051C545.158 260.709 543.909 258.984 547.054 258.162Z" fill="white"/>
<path d="M646.926 273.593C643.085 270.324 641.599 266.307 640.315 262.175C639.452 259.395 640.29 257.873 643.734 258.028C647.217 258.184 650.748 257.594 655 258.639C652.889 263.96 651.986 269.422 651.192 274.707C649.235 275.507 648.251 274.514 646.926 273.593Z" fill="black"/>
<path d="M646.926 273.593C643.085 270.324 641.599 266.307 640.315 262.175C639.452 259.395 640.29 257.873 643.734 258.028C647.217 258.184 650.748 257.594 655 258.639C652.889 263.96 651.986 269.422 651.192 274.707C649.235 275.507 648.251 274.514 646.926 273.593Z" fill="white"/>
</svg>
