<svg width="1500" height="500" viewBox="0 0 1500 500" fill="none" xmlns="http://www.w3.org/2000/svg">
<path d="M623.18 144.933C626.107 148.438 629.24 151.558 631.081 155.766C628.782 157.164 626.43 156.579 624.276 156.982C613.079 159.073 603.423 163.81 595.979 172.615C595.434 173.26 594.868 173.895 594.388 174.587C591.481 178.779 591.588 179.299 595.951 182.603C596.987 182.448 597.474 181.577 598.056 180.874C616.049 159.14 646.898 159.656 666.451 174.626C678.385 183.763 685.622 195.585 687.942 210.417C688.911 216.614 688.662 222.78 687.215 228.872C686.761 230.784 687.109 231.793 689.17 232.334C716.866 239.608 733.899 257.831 741.254 284.89C747.758 308.818 742.518 330.95 727.549 350.562C716.98 364.41 702.404 372.311 685.759 376.739C679.433 378.422 673.035 379.004 666.505 379C599.955 378.954 533.406 378.983 466.857 378.97C434.367 378.964 406.497 359.815 395.525 329.216C383.2 294.842 396.674 256.676 428.386 238.405C432.72 235.908 437.328 233.977 442.102 232.517C443.952 231.951 444.53 231.253 444.389 229.198C442.927 207.872 451.247 191.325 469.273 179.848C475.37 175.966 482.297 173.974 489.491 173.272C491.568 173.07 492.429 172.204 493.066 170.422C497.707 157.427 505.532 146.708 516.32 138.11C527.783 128.975 540.797 123.634 555.325 121.734C569.934 119.823 584.007 121.609 597.5 127.483C607.073 131.649 615.709 137.279 623.18 144.933ZM580.615 178.708C572.146 170.18 562.272 164.487 550.004 162.896C549.916 164.983 551.044 165.694 551.768 166.612C555.735 171.647 558.816 176.969 558.802 183.709C558.784 191.877 555.129 198.503 550.579 204.87C545.776 211.591 540.672 218.123 539.763 226.858C539.529 229.116 540.971 232.361 538.454 233.559C536.442 234.517 533.645 233.728 531.216 233.941C528.744 234.158 526.936 233.365 525.328 231.459C523.007 228.71 520.164 226.52 516.95 224.861C516.159 224.452 515.283 223.586 514.402 224.443C513.611 225.213 514.146 226.201 514.466 227.081C515.223 229.164 516.222 231.201 515.789 233.845C513.11 233.845 510.496 233.839 507.882 233.848C506.536 233.853 506.161 233.018 505.994 231.866C505.787 230.436 505.466 228.901 503.609 228.911C501.702 228.922 500.715 230.157 500.593 231.988C500.465 233.912 499.166 233.87 497.783 233.875C496.112 233.882 495.742 232.848 495.729 231.474C495.712 229.593 495.682 227.712 495.675 225.83C495.669 224.075 495.189 222.404 493.225 222.311C491.077 222.21 490.425 223.908 490.417 225.782C490.39 232.272 490.401 238.762 490.398 245.253C490.398 246.959 490.969 248.342 492.906 248.294C494.692 248.25 495.553 246.992 495.645 245.293C495.731 243.699 495.668 242.096 495.692 240.498C495.712 239.103 495.458 237.546 497.509 237.278C499.42 237.029 500.494 237.648 500.755 239.75C500.909 240.998 501.867 241.942 503.311 241.963C504.623 241.981 505.525 241.205 505.775 240.027C506.254 237.774 507.667 237.294 509.693 237.479C510.906 237.59 512.148 237.582 513.36 237.463C515.722 237.232 516.447 238.247 516.402 240.554C516.217 249.998 512.519 258.049 506.872 265.373C502.219 271.407 496.688 276.705 492.271 282.944C481.549 298.087 478.746 314.375 485.665 331.768C493.023 350.266 507.304 360.839 526.231 365.63C531.774 367.033 537.43 367.067 543.675 366.537C542.639 365.792 542.142 365.371 541.588 365.046C535.675 361.568 530.737 357.008 526.389 351.725C516.771 340.037 513.986 326.639 516.661 312.039C518.368 302.717 523.311 294.959 529.666 288.047C535.647 281.542 542.557 275.845 547.578 268.515C556.542 255.428 560.303 241.55 552.876 226.336C552.642 225.856 552.297 225.343 552.723 224.568C554.33 224.19 555.708 225.136 557.092 225.812C575.695 234.898 585.925 253.534 583.824 274.195C583.483 277.55 583.534 280.961 583.643 284.339C583.742 287.429 586.067 289.894 589 290.447C591.486 290.915 594.467 289.01 595.644 286.217C596.486 284.22 596.436 282.174 595.924 280.134C595.434 278.179 594.833 276.252 594.26 274.243C596.577 274.375 596.718 274.355 598.801 275.836C612.776 285.775 620.56 299.454 620.654 316.448C620.77 337.16 611.059 353.117 593.863 364.573C593.068 365.103 591.906 365.267 591.562 366.722C595.413 366.81 599.105 366.782 602.846 366.302C618.562 364.287 631.937 357.866 641.655 345.151C653.964 329.045 656.4 311.423 648.459 292.609C644.924 284.234 638.856 277.613 633.047 270.818C625.531 262.027 619.637 252.471 618.645 240.542C618.459 238.299 618.997 237.441 621.288 237.474C626.653 237.551 632.02 237.509 637.386 237.447C638.875 237.43 639.807 237.721 640.251 239.397C640.951 242.039 642.78 243.984 644.972 245.548C648.654 248.175 652.883 248.19 656.531 245.641C660.4 242.938 662.34 238.227 661.261 234.158C660.045 229.573 656.055 225.82 651.491 225.569C646.88 225.316 643.353 227.463 641.084 231.533C640.45 232.671 640.051 233.921 638.319 233.907C632.389 233.86 626.458 233.904 620.528 233.926C619.115 233.931 618.507 233.444 618.711 231.876C618.93 230.19 619.172 228.539 619.723 226.924C620.022 226.047 620.34 224.997 619.55 224.269C618.661 223.45 617.774 224.248 616.977 224.659C613.24 226.585 610.171 229.34 607.414 232.47C606.863 233.096 606.454 233.943 605.468 233.949C602.113 233.969 598.756 233.957 595.493 233.957C594.912 232.22 595.201 230.847 595.422 229.452C596.346 223.604 597.046 217.748 596.201 211.812C595.655 207.979 595.89 207.684 599.847 207.852C612.175 208.376 624.506 208.063 636.836 208.078C638.893 208.08 640.125 208.6 640.939 210.575C641.777 212.612 643.443 214.098 645.279 215.293C648.796 217.582 654.026 217.168 657.441 214.405C660.958 211.559 662.478 206.477 660.91 202.527C659.183 198.178 656.246 195.241 651.318 195.006C646.139 194.759 642.719 197.004 640.557 201.976C640.03 203.189 639.511 204.013 637.956 204.01C624.402 203.983 610.847 204.01 597.293 204.073C595.543 204.082 594.49 203.553 594.018 201.754C591.715 192.985 586.792 185.705 580.615 178.708ZM566.078 297.087C565.666 301.292 563.826 304.747 560.805 307.697C557.945 310.489 554.526 312.475 551.285 314.721C539.372 322.98 535.209 336.203 540.668 348.49C546.285 361.13 560.592 368.254 574.014 365.094C590.5 361.212 600.281 344.47 595.897 327.577C594.819 323.421 593.427 319.395 589.944 315.893C589.065 320.482 588.424 324.759 584.786 327.557C581.404 330.158 577.747 332.019 572.278 331.349C578.645 324.18 580.523 316.359 578.906 307.818C577.318 299.427 573.062 292.634 565.619 287.024C565.021 290.773 566.543 293.646 566.078 297.087ZM429.729 320.494C431.555 327.458 434.626 333.888 438.234 340.076C439.461 342.18 441.263 343.223 443.685 342.071C445.954 340.991 446.57 338.62 445.313 336.018C444.537 334.411 443.641 332.861 442.779 331.296C436.284 319.497 434.173 306.899 436.471 293.692C437.852 285.757 441.067 278.44 445.459 271.645C446.987 269.281 446.525 267.105 444.567 265.722C442.667 264.38 440.431 264.897 438.71 267.184C437.979 268.155 437.405 269.248 436.795 270.305C427.772 285.929 425.407 302.518 429.729 320.494ZM704.535 322.323C708.478 307.485 708.691 292.833 702.015 278.636C700.141 274.652 697.945 270.798 695.622 267.055C694.193 264.751 692.032 264.444 690.023 265.79C687.95 267.179 687.645 269.054 688.797 271.184C689.421 272.338 690.171 273.424 690.835 274.559C695.885 283.2 699.336 292.411 699.333 302.502C699.329 314.291 696.253 325.305 689.623 335.212C687.892 337.799 688.391 340.457 690.687 341.809C693.007 343.174 695.094 342.468 696.719 339.641C699.812 334.257 702.602 328.729 704.535 322.323ZM459.805 292.347C460.834 289.099 462.326 286.085 464.326 283.321C465.652 281.49 465.349 279.739 463.808 278.258C462.257 276.767 460.461 276.724 458.641 277.857C457.818 278.37 457.309 279.152 456.801 279.953C453.124 285.753 450.801 292.045 449.968 298.861C448.621 309.876 451.596 319.867 457.349 329.151C458.373 330.802 460.134 330.95 461.89 330.618C463.526 330.308 464.602 329.205 464.985 327.664C465.437 325.845 464.228 324.427 463.336 323.032C457.258 313.523 456.466 303.396 459.805 292.347ZM682.007 287.407C680.63 284.63 679.349 281.799 677.444 279.32C675.587 276.904 673.743 276.426 671.689 277.829C669.495 279.327 669.148 281.431 670.738 283.948C672.141 286.169 673.634 288.318 674.608 290.799C679.227 302.564 677.626 313.597 670.854 324.067C670.035 325.334 669.235 326.596 669.966 328.249C670.64 329.775 671.681 330.635 673.373 330.77C675.487 330.938 677.026 330.058 678.083 328.303C685.818 315.449 687.429 301.973 682.007 287.407ZM484.234 211.415C481.697 210.906 480.771 211.541 480.759 214.181C480.702 227.623 480.717 241.064 480.7 254.506C480.698 256.256 481.07 257.875 483.172 257.908C485.365 257.943 485.602 256.224 485.601 254.523C485.594 241.364 485.581 228.204 485.56 215.045C485.558 213.833 485.675 212.564 484.234 211.415ZM475.937 229.555C475.925 228.146 475.968 226.734 475.884 225.33C475.793 223.793 475.13 222.43 473.459 222.373C471.69 222.311 470.747 223.541 470.664 225.273C470.583 226.96 470.706 228.657 470.602 230.342C470.532 231.476 471.191 232.987 469.703 233.598C468.194 234.218 466.935 233.746 465.732 232.441C464.014 230.579 461.88 230.959 460.644 233.152C459.655 234.907 459.331 236.818 460.926 238.35C462.531 239.891 464.377 239.635 465.995 238.231C467.15 237.229 468.469 237.237 469.703 237.653C471.147 238.14 470.503 239.571 470.58 240.606C470.683 242.007 470.659 243.424 470.602 244.83C470.521 246.845 471.069 248.635 473.328 248.639C475.689 248.643 475.968 246.662 475.965 244.76C475.958 239.876 475.947 234.992 475.937 229.555Z" fill="black"/>
<path d="M901.776 238.89C901.779 235.673 901.725 232.728 901.797 229.786C901.89 226.053 903.704 223.918 906.574 224.002C909.341 224.084 910.985 226.151 910.991 229.793C911.012 243.086 910.993 256.379 910.973 269.672C910.969 272.183 910.984 274.78 907.987 275.73C905.158 276.625 903.345 275.216 902.234 272.689C893.989 277.464 887.774 277.055 882.29 271.489C876.785 265.902 875.405 257.321 878.961 250.785C883.424 242.583 889.359 240.647 901.384 243.564C902.065 242.158 901.663 240.628 901.776 238.89ZM901.271 256.463C899.732 252.249 896.41 249.664 893.075 250.084C889.346 250.553 886.291 253.916 885.865 258.022C885.48 261.729 887.768 265.544 891.155 266.84C896.962 269.064 902.34 263.843 901.271 256.463Z" fill="black"/>
<path d="M805.908 272.683C796.246 264.328 796.812 249.911 807.027 243.691C812.632 240.279 818.335 240.465 823.751 244.421C823.931 244.344 824.165 244.324 824.242 244.2C825.556 242.076 827.158 240.389 829.842 241.213C832.604 242.061 832.742 244.444 832.754 246.948C832.79 254.709 832.972 262.469 833 270.23C833.012 273.523 831.766 275.228 829.29 275.71C827.008 276.155 825.426 275.052 824.212 272.923C818.137 276.801 812.062 277.327 805.908 272.683ZM816.166 267.077C820.327 266.393 822.682 264.503 823.368 260.872C824.031 257.365 823.56 254.062 820.562 251.708C817.65 249.422 814.02 249.346 811.146 251.429C808.455 253.379 807.137 257.778 808.172 261.359C809.19 264.887 811.855 266.909 816.166 267.077Z" fill="black"/>
<path d="M1041.13 275.875C1039.24 275.602 1038.19 274.433 1037.21 272.845C1033.13 275.545 1028.88 276.938 1024.05 275.293C1020.56 274.106 1018.03 271.76 1016 268.747C1011.59 262.186 1012.1 253.376 1017.16 247.271C1022.6 240.695 1028.99 239.622 1036.96 243.945C1037.61 243.921 1037.83 243.329 1038.18 242.915C1039.58 241.261 1041.25 240.526 1043.31 241.322C1045.44 242.147 1045.99 244.019 1045.99 246.151C1046 254.367 1046.02 262.583 1045.94 270.797C1045.9 274.275 1044.74 275.427 1041.13 275.875ZM1023.44 264.173C1026.62 267.683 1029.95 268.136 1033.59 265.301C1036.32 263.173 1037.18 260.163 1036.5 256.692C1035.83 253.211 1033.2 250.376 1029.92 249.953C1026.93 249.569 1024.65 251.132 1023.05 253.66C1020.9 257.043 1021.17 260.474 1023.44 264.173Z" fill="black"/>
<path d="M1041.13 275.875C1039.24 275.602 1038.19 274.433 1037.21 272.845C1033.13 275.545 1028.88 276.938 1024.05 275.293C1020.56 274.106 1018.03 271.76 1016 268.747C1011.59 262.186 1012.1 253.376 1017.16 247.271C1022.6 240.695 1028.99 239.622 1036.96 243.945C1037.61 243.921 1037.83 243.329 1038.18 242.915C1039.58 241.261 1041.25 240.526 1043.31 241.322C1045.44 242.147 1045.99 244.019 1045.99 246.151C1046 254.367 1046.02 262.583 1045.94 270.797C1045.9 274.275 1044.74 275.427 1041.13 275.875ZM1023.44 264.173C1026.62 267.683 1029.95 268.136 1033.59 265.301C1036.32 263.173 1037.18 260.163 1036.5 256.692C1035.83 253.211 1033.2 250.376 1029.92 249.953C1026.93 249.569 1024.65 251.132 1023.05 253.66C1020.9 257.043 1021.17 260.474 1023.44 264.173Z" fill="#F97316"/>
<path d="M1090.47 275.735C1083.39 274.472 1077.48 268.618 1076.31 261.881C1074.94 254.018 1078.14 246.584 1084.67 242.992C1090.24 239.929 1095.87 240.566 1101.13 243.757C1106.24 246.861 1109.19 251.465 1108.99 257.751C1108.87 261.418 1106.9 263.029 1103.25 262.66C1097.54 262.084 1091.83 262.371 1085.99 262.505C1088.05 267.555 1094.06 268.435 1097.9 265.879C1099.38 264.894 1100.84 264.102 1102.64 264.942C1104.18 265.659 1105.88 266.206 1106.13 268.302C1106.36 270.274 1105.32 271.645 1103.87 272.65C1099.9 275.408 1095.52 276.568 1090.47 275.735ZM1093.72 255.224C1095.59 254.964 1097.62 255.826 1099.37 254.535C1097.91 250.785 1095.21 249.157 1091.4 249.617C1088.3 249.993 1086.4 251.766 1086 254.812C1088.34 255.679 1090.78 255.029 1093.72 255.224Z" fill="black"/>
<path d="M1090.47 275.735C1083.39 274.472 1077.48 268.618 1076.31 261.881C1074.94 254.018 1078.14 246.584 1084.67 242.992C1090.24 239.929 1095.87 240.566 1101.13 243.757C1106.24 246.861 1109.19 251.465 1108.99 257.751C1108.87 261.418 1106.9 263.029 1103.25 262.66C1097.54 262.084 1091.83 262.371 1085.99 262.505C1088.05 267.555 1094.06 268.435 1097.9 265.879C1099.38 264.894 1100.84 264.102 1102.64 264.942C1104.18 265.659 1105.88 266.206 1106.13 268.302C1106.36 270.274 1105.32 271.645 1103.87 272.65C1099.9 275.408 1095.52 276.568 1090.47 275.735ZM1093.72 255.224C1095.59 254.964 1097.62 255.826 1099.37 254.535C1097.91 250.785 1095.21 249.157 1091.4 249.617C1088.3 249.993 1086.4 251.766 1086 254.812C1088.34 255.679 1090.78 255.029 1093.72 255.224Z" fill="#F97316"/>
<path d="M966.124 264.221C961.886 273.965 953.04 278.154 943.894 274.926C936.724 272.396 931.943 263.793 933.201 255.682C934.498 247.312 941.311 241.071 949.227 241.001C961.673 240.89 969.762 251.856 966.124 264.221ZM955.683 252.132C952.294 249.184 949.216 248.711 945.876 250.625C942.929 252.313 941.428 255.823 941.94 259.829C942.383 263.292 944.659 265.99 947.834 266.816C950.82 267.593 954.769 266.066 956.582 263.434C958.78 260.243 958.545 256.114 955.683 252.132Z" fill="black"/>
<path d="M843.224 269.575C841.645 266.691 840.972 263.785 841.001 260.659C841.044 255.993 840.986 251.325 841.029 246.659C841.062 243.133 842.789 240.975 845.442 241C848.207 241.026 849.762 242.963 849.824 246.664C849.9 251.234 849.843 255.807 849.914 260.378C849.982 264.777 851.686 267.037 854.876 267.131C858.643 267.243 861.826 264.514 862.063 260.575C862.292 256.78 862.139 252.96 862.165 249.152C862.172 248.01 862.129 246.856 862.263 245.729C862.631 242.646 864.329 240.904 866.724 241.033C869.281 241.17 870.941 243.137 870.967 246.257C871.014 252.067 870.986 257.877 870.989 263.687C870.99 266.068 870.963 268.449 870.998 270.83C871.027 272.841 870.789 274.729 868.741 275.531C866.645 276.351 864.891 275.601 863.455 273.871C863.226 273.596 862.993 273.326 862.782 273.076C853.101 277.767 848.47 276.964 843.224 269.575Z" fill="black"/>
<path d="M968.002 247.254C967.96 243.418 968.603 242.502 972.209 241.81C973.592 241.544 973.958 240.9 974.036 239.721C974.117 238.492 974.278 237.265 974.47 236.047C975.741 227.976 983.701 223.176 991.724 225.655C992.55 225.91 993.441 226.207 994.086 226.734C995.908 228.225 997.832 229.95 996.622 232.507C995.437 235.007 992.978 235.014 990.532 234.461C985.589 233.344 983.524 234.911 983.631 239.561C983.666 241.093 984.157 241.877 985.823 241.834C987.188 241.798 988.571 241.765 989.921 241.925C992.514 242.233 994.228 244.025 994.054 246.272C993.86 248.775 992.47 250.284 989.797 250.502C989.505 250.526 989.212 250.543 988.92 250.549C983.611 250.66 983.615 250.659 983.621 255.975C983.628 260.911 983.652 265.846 983.616 270.782C983.591 274.284 981.966 276.035 978.899 275.999C975.995 275.965 974.468 274.272 974.438 270.843C974.387 265.053 974.374 259.263 974.444 253.474C974.465 251.723 974.178 250.622 972.03 250.419C970.226 250.249 968.731 249.265 968.002 247.254Z" fill="black"/>
<path d="M968.002 247.254C967.96 243.418 968.603 242.502 972.209 241.81C973.592 241.544 973.958 240.9 974.036 239.721C974.117 238.492 974.278 237.265 974.47 236.047C975.741 227.976 983.701 223.176 991.724 225.655C992.55 225.91 993.441 226.207 994.086 226.734C995.908 228.225 997.832 229.95 996.622 232.507C995.437 235.007 992.978 235.014 990.532 234.461C985.589 233.344 983.524 234.911 983.631 239.561C983.666 241.093 984.157 241.877 985.823 241.834C987.188 241.798 988.571 241.765 989.921 241.925C992.514 242.233 994.228 244.025 994.054 246.272C993.86 248.775 992.47 250.284 989.797 250.502C989.505 250.526 989.212 250.543 988.92 250.549C983.611 250.66 983.615 250.659 983.621 255.975C983.628 260.911 983.652 265.846 983.616 270.782C983.591 274.284 981.966 276.035 978.899 275.999C975.995 275.965 974.468 274.272 974.438 270.843C974.387 265.053 974.374 259.263 974.444 253.474C974.465 251.723 974.178 250.622 972.03 250.419C970.226 250.249 968.731 249.265 968.002 247.254Z" fill="#F97316"/>
<path d="M1000.06 249.469C1000.09 243.713 1000.1 238.241 1000.15 232.769C1000.16 231.262 1000.2 229.747 1000.35 228.253C1000.6 225.827 1001.67 224.161 1003.87 224.007C1005.88 223.867 1007.6 225.805 1007.92 228.409C1008.03 229.337 1008 230.292 1007.99 231.234C1007.98 243.877 1007.95 256.521 1007.93 269.164C1007.92 273.626 1006.55 275.985 1004 276C1001.33 276.016 999.99 273.779 1000 269.283C1000.02 262.773 1000.04 256.263 1000.06 249.469Z" fill="black"/>
<path d="M1000.06 249.469C1000.09 243.713 1000.1 238.241 1000.15 232.769C1000.16 231.262 1000.2 229.747 1000.35 228.253C1000.6 225.827 1001.67 224.161 1003.87 224.007C1005.88 223.867 1007.6 225.805 1007.92 228.409C1008.03 229.337 1008 230.292 1007.99 231.234C1007.98 243.877 1007.95 256.521 1007.93 269.164C1007.92 273.626 1006.55 275.985 1004 276C1001.33 276.016 999.99 273.779 1000 269.283C1000.02 262.773 1000.04 256.263 1000.06 249.469Z" fill="#F97316"/>
<path d="M1053.01 270.208C1053 262.69 1052.99 255.435 1053.01 248.179C1053.01 247.039 1053.08 245.887 1053.25 244.763C1053.53 242.938 1054.38 241.477 1056.23 241.111C1058.18 240.726 1059.83 241.322 1060.89 243.227C1061.11 243.635 1061.35 244.034 1061.71 244.651C1063.65 242.938 1065.71 241.621 1068.23 241.332C1070.34 241.091 1072.22 241.6 1073.78 243.091C1074.96 244.216 1075.31 245.663 1074.72 247.268C1074.16 248.793 1073.3 249.776 1071.55 249.891C1064.73 250.337 1061.93 253.53 1061.83 260.794C1061.79 263.848 1061.84 266.903 1061.82 269.958C1061.78 273.974 1060.57 275.783 1057.84 275.983C1054.92 276.195 1053.41 274.467 1053.01 270.208Z" fill="black"/>
<path d="M1053.01 270.208C1053 262.69 1052.99 255.435 1053.01 248.179C1053.01 247.039 1053.08 245.887 1053.25 244.763C1053.53 242.938 1054.38 241.477 1056.23 241.111C1058.18 240.726 1059.83 241.322 1060.89 243.227C1061.11 243.635 1061.35 244.034 1061.71 244.651C1063.65 242.938 1065.71 241.621 1068.23 241.332C1070.34 241.091 1072.22 241.6 1073.78 243.091C1074.96 244.216 1075.31 245.663 1074.72 247.268C1074.16 248.793 1073.3 249.776 1071.55 249.891C1064.73 250.337 1061.93 253.53 1061.83 260.794C1061.79 263.848 1061.84 266.903 1061.82 269.958C1061.78 273.974 1060.57 275.783 1057.84 275.983C1054.92 276.195 1053.41 274.467 1053.01 270.208Z" fill="#F97316"/>
<path d="M918.013 256.187C918.019 253.06 917.963 250.208 918.047 247.361C918.129 244.583 919.635 243.029 922.074 243C924.782 242.968 926.973 244.698 926.987 247.289C927.029 255.47 926.966 263.652 926.826 271.831C926.781 274.421 924.803 276.031 922.184 276C919.868 275.972 918.116 274.269 918.062 271.632C917.959 266.578 918.02 261.52 918.013 256.187Z" fill="black"/>
<path d="M919.854 238.234C917.793 236.535 917.595 234.569 918.551 232.471C919.353 230.711 920.911 229.885 922.809 230.013C924.897 230.153 926.022 231.594 926.73 233.4C927.393 235.092 926.773 236.472 925.553 237.629C923.907 239.191 922.043 239.453 919.854 238.234Z" fill="black"/>
<path d="M531.369 238.113C532.396 238.075 533.172 238.053 533.948 238.054C540.897 238.058 540.001 237.008 539.92 243.995C539.866 248.64 538.521 252.962 535.122 256.477C533.962 257.676 532.758 258.932 530.864 259C530.038 258.109 530.665 257.314 530.908 256.587C532.675 251.283 532.678 246.049 530.498 240.836C530.105 239.897 529.273 238.689 531.369 238.113Z" fill="black"/>
<path d="M599.618 249.007C597.057 246.699 596.066 243.864 595.21 240.947C594.634 238.985 595.193 237.91 597.49 238.02C599.811 238.13 602.165 237.713 605 238.451C603.593 242.207 602.991 246.063 602.461 249.793C601.157 250.358 600.501 249.657 599.618 249.007Z" fill="black"/>
</svg>
